<?xml version="1.0" encoding="UTF-8"?>
<svg version="1.1" xmlns="http://www.w3.org/2000/svg" width="351" height="376">
<path d="M0 0 C1.0362854 0.51880737 1.0362854 0.51880737 2.09350586 1.0480957 C2.82964111 1.42667725 3.56577637 1.80525879 4.32421875 2.1953125 C47.53529059 23.38325703 94.05039708 36.13063765 141.1953125 44.91015625 C141.87012665 45.03661026 142.5449408 45.16306427 143.24020386 45.29335022 C146.3433972 45.86577167 149.44094549 46.37979468 152.56689453 46.81298828 C153.63278809 46.96106934 154.69868164 47.10915039 155.796875 47.26171875 C156.71476807 47.37330322 157.63266113 47.4848877 158.57836914 47.59985352 C161.82327335 48.5605952 162.95394077 49.61791668 165.01171875 52.3203125 C165.4017072 55.18561809 165.54906109 57.66484607 165.51342773 60.52832031 C165.52153221 61.76882645 165.52153221 61.76882645 165.52980042 63.03439331 C165.54234101 65.78110213 165.52572189 68.52677051 165.5078125 71.2734375 C165.50796777 73.2088832 165.50946143 75.14432921 165.51222229 77.07977295 C165.51361003 81.15878894 165.50101761 85.23745511 165.47827148 89.31640625 C165.45040862 94.44417234 165.45275844 99.57133988 165.46496582 104.69914722 C165.53992676 144.04978841 163.67873063 183.41982828 152.01171875 221.3203125 C151.74020996 222.20460937 151.46870117 223.08890625 151.18896484 224 C145.29254877 242.80601835 137.39315859 261.13501818 126.01171875 277.3203125 C125.63692383 277.86059082 125.26212891 278.40086914 124.87597656 278.95751953 C117.34627776 289.79825559 109.34216597 300.0057927 100.390625 309.72265625 C98.34796668 311.95314522 96.35735157 314.21397794 94.38671875 316.5078125 C88.46708257 323.28097762 82.11715221 329.18596573 75.09375 334.8046875 C72.80025483 336.67669116 70.55964994 338.5716982 68.3359375 340.5234375 C67.71154785 341.06967773 67.0871582 341.61591797 66.44384766 342.17871094 C65.21857644 343.25454322 63.9980006 344.33575212 62.78271484 345.42285156 C59.8428007 347.9947501 57.74080711 349.39355126 54.01171875 350.3203125 C52.86126162 351.47076963 51.71548336 352.6264069 50.59765625 353.80859375 C43.53393717 360.5417447 34.32969744 365.3055416 26.01171875 370.3203125 C25.10679687 370.90941406 24.201875 371.49851562 23.26953125 372.10546875 C22.52445313 372.50636719 21.779375 372.90726562 21.01171875 373.3203125 C18.69921875 372.5078125 18.69921875 372.5078125 17.01171875 371.3203125 C18.39266927 367.52611676 20.1586939 364.3693085 22.38671875 361.0078125 C25.26548238 356.5528663 27.78910026 352.12991316 30.01171875 347.3203125 C30.57632813 346.1446875 30.57632813 346.1446875 31.15234375 344.9453125 C38.47039085 329.38288322 42.75855397 313.91924993 46.38305664 297.1315918 C46.91913954 294.73431236 47.51360294 292.36849082 48.1484375 289.99609375 C49.02228089 286.27533975 49.3817248 282.82083101 49.57421875 279.0078125 C49.80108028 274.72522244 50.08767752 270.47830799 50.515625 266.2109375 C52.84932033 240.87894608 51.30917815 215.18845589 42.01171875 191.3203125 C41.68171875 190.3303125 41.35171875 189.3403125 41.01171875 188.3203125 C40.35171875 187.9903125 39.69171875 187.6603125 39.01171875 187.3203125 C38.28414961 185.63585443 37.56093013 183.94926669 36.86865234 182.25 C31.85885892 170.96868741 22.96648062 161.47215281 11.76953125 156.3359375 C2.54523773 152.93888889 -4.80967758 152.89092678 -14.11328125 155.984375 C-20.26410048 158.84250024 -24.39376865 163.09146319 -26.98828125 169.3203125 C-27.71697568 173.3254724 -27.93057652 177.25475182 -27.98828125 181.3203125 C-28.03339844 182.34125 -28.07851562 183.3621875 -28.125 184.4140625 C-27.93111151 189.95373377 -26.91618861 195.30001942 -25.98828125 200.7578125 C-21.50507689 228.77929848 -26.3180501 253.17555383 -38.98828125 278.3203125 C-39.48303955 279.32747314 -39.48303955 279.32747314 -39.98779297 280.35498047 C-47.56894819 295.74418535 -57.40909163 309.26473468 -68.02734375 322.68359375 C-70.40816643 325.79847534 -70.40816643 325.79847534 -71.98828125 329.3203125 C-69.66705503 337.04734745 -62.85603897 344.07457981 -57.98828125 350.3203125 C-56.94220703 351.67769531 -56.94220703 351.67769531 -55.875 353.0625 C-52.7877459 357.00699165 -49.69372865 360.69019011 -46.05078125 364.1328125 C-43.37720561 366.69701459 -42.1051393 368.46399677 -41.98828125 372.3203125 C-47.14586471 370.89425256 -50.96429041 368.57753004 -55.30078125 365.5703125 C-56.63922348 364.65740628 -57.97776459 363.74464502 -59.31640625 362.83203125 C-59.95384766 362.3942334 -60.59128906 361.95643555 -61.24804688 361.50537109 C-63.32411531 360.09161742 -65.43625744 358.73817457 -67.55078125 357.3828125 C-83.3386283 346.82801588 -97.78216841 333.91294571 -110.98828125 320.3203125 C-114.26455657 317.01537374 -114.26455657 317.01537374 -117.62109375 313.79296875 C-131.6323284 300.55198522 -143.3292684 282.90956023 -152.3671875 265.98046875 C-153.86899499 263.09516211 -153.86899499 263.09516211 -156.98828125 261.3203125 C-156.32828125 261.3203125 -155.66828125 261.3203125 -154.98828125 261.3203125 C-155.46136719 260.45535156 -155.93445313 259.59039062 -156.421875 258.69921875 C-165.11352838 242.32786242 -175.98828125 220.21430822 -175.98828125 201.3203125 C-176.64828125 200.9903125 -177.30828125 200.6603125 -177.98828125 200.3203125 C-178.26800767 198.49883817 -178.52930395 196.67325837 -178.71533203 194.83984375 C-179.0192776 192.03419239 -179.44656542 189.26345002 -179.890625 186.4765625 C-186.3906427 144.93909997 -187.05365626 102.7320937 -185.67578125 60.7578125 C-185.65338379 59.82453125 -185.63098633 58.89125 -185.60791016 57.9296875 C-185.5722998 57.08792969 -185.53668945 56.24617188 -185.5 55.37890625 C-185.47381592 54.66017334 -185.44763184 53.94144043 -185.4206543 53.20092773 C-184.81875414 50.58295095 -184.23105613 49.84563238 -181.98828125 48.3203125 C-179.2574495 47.66730371 -176.65529569 47.17737617 -173.88671875 46.77734375 C-172.19884875 46.51020927 -170.5110252 46.24278116 -168.82324219 45.97509766 C-167.93342651 45.83839661 -167.04361084 45.70169556 -166.12683105 45.56085205 C-121.75738105 38.68857516 -77.62958733 26.66865243 -36.62109375 8.18359375 C-35.8484166 7.83598999 -35.07573944 7.48838623 -34.27964783 7.13024902 C-30.53753867 5.43881007 -26.81175241 3.71945169 -23.1027832 1.95654297 C-21.7509172 1.33148205 -20.3989528 0.70663388 -19.046875 0.08203125 C-17.87439209 -0.47524658 -16.70190918 -1.03252441 -15.49389648 -1.60668945 C-10.09122297 -3.26033874 -5.07927637 -2.63276176 0 0 Z M-9.98828125 61.3203125 C-5.98828125 62.3203125 -5.98828125 62.3203125 -5.98828125 62.3203125 Z M-4.98828125 102.3203125 C-7.44722031 106.0087211 -7.67038965 109.03770789 -6.98828125 113.3203125 C-4.84572973 116.66269288 -3.38545627 117.21199204 0.44921875 118.2578125 C4.51836868 118.3292011 6.01596739 118.05928517 9.01171875 115.3203125 C10.84575563 111.27014772 11.31655412 109.27068161 9.94921875 105.0078125 C7.76674668 101.98051253 6.59514278 101.19431836 3.01171875 100.3203125 C-0.76977201 100.3203125 -1.95263025 100.39773353 -4.98828125 102.3203125 Z M33.01171875 140.3203125 C33.01171875 141.9703125 33.01171875 143.6203125 33.01171875 145.3203125 C33.34171875 145.3203125 33.67171875 145.3203125 34.01171875 145.3203125 C34.01171875 143.6703125 34.01171875 142.0203125 34.01171875 140.3203125 C33.68171875 140.3203125 33.35171875 140.3203125 33.01171875 140.3203125 Z M72.01171875 237.3203125 C73.01171875 239.3203125 73.01171875 239.3203125 73.01171875 239.3203125 Z M73.01171875 250.3203125 C73.01171875 257.2503125 73.01171875 264.1803125 73.01171875 271.3203125 C73.34171875 271.3203125 73.67171875 271.3203125 74.01171875 271.3203125 C74.01171875 264.3903125 74.01171875 257.4603125 74.01171875 250.3203125 C73.68171875 250.3203125 73.35171875 250.3203125 73.01171875 250.3203125 Z M-107.98828125 258.3203125 C-106.98828125 260.3203125 -106.98828125 260.3203125 -106.98828125 260.3203125 Z M-109.98828125 269.3203125 C-108.98828125 271.3203125 -108.98828125 271.3203125 -108.98828125 271.3203125 Z M72.01171875 278.3203125 C73.01171875 280.3203125 73.01171875 280.3203125 73.01171875 280.3203125 Z M71.01171875 284.3203125 C72.01171875 287.3203125 72.01171875 287.3203125 72.01171875 287.3203125 Z " fill="#55AF62" transform="translate(185.98828125,2.6796875)"/>
<path d="M0 0 C0.61359375 0.40605469 1.2271875 0.81210938 1.859375 1.23046875 C10.01511333 7.30986085 15.44572236 17.25058526 17.75 26.9375 C18.92425574 30.41380386 19.86492322 32.38596324 23.14550781 34.16064453 C27.64274901 35.95664835 32.21512321 37.22978173 36.8984375 38.4375 C41.85989879 39.78453008 45.13460809 41.59866605 49 45 C49.4375 48.3125 49.4375 48.3125 49 51 C43.9175921 53.0744522 38.89508661 54.55526529 33.5625 55.875 C26.00385857 57.81555558 19.77494489 60.02684476 14.375 65.8125 C12.64962684 69.8122287 12.99381141 72.87318938 14 77 C15.22983367 79.51009333 16.42793075 81.68218752 17.9375 84 C18.33646484 84.64098633 18.73542969 85.28197266 19.14648438 85.94238281 C20.8227273 88.62619632 22.53608834 91.28496038 24.25830078 93.93945312 C40.33505256 118.71945625 52.03450212 146.71076574 52.203125 176.6796875 C52.20882507 177.49132355 52.21452515 178.30295959 52.22039795 179.13919067 C52.22979185 180.85189537 52.23635943 182.56461768 52.24023438 184.27734375 C52.24984465 186.83367673 52.2808817 189.38917075 52.3125 191.9453125 C52.38604599 203.25656301 51.28449488 213.92682206 49 225 C48.77022461 226.12599609 48.54044922 227.25199219 48.30371094 228.41210938 C47.66160071 231.39097126 46.97166732 234.35197296 46.25 237.3125 C45.99686035 238.35865479 45.7437207 239.40480957 45.48291016 240.48266602 C42.90325739 250.8506747 39.67371874 260.97073754 36 271 C35.69553955 271.88099365 35.3910791 272.7619873 35.07739258 273.66967773 C33.19095165 278.84471449 31.72210071 282.10816199 26.9375 285.1875 C25.968125 285.82816406 24.99875 286.46882813 24 287.12890625 C23.01 287.74636719 22.02 288.36382812 21 289 C20.071875 289.60714844 19.14375 290.21429688 18.1875 290.83984375 C16.37384134 292.01717615 14.54838494 293.17655705 12.7109375 294.31640625 C10.86505229 295.46277012 9.03725637 296.63866514 7.2265625 297.83984375 C6.34742188 298.40832031 5.46828125 298.97679687 4.5625 299.5625 C3.78003906 300.07941406 2.99757812 300.59632813 2.19140625 301.12890625 C0 302 0 302 -2.28515625 301.15234375 C-2.85105469 300.77207031 -3.41695312 300.39179688 -4 300 C-2.61904948 296.20580426 -0.85302485 293.048996 1.375 289.6875 C4.25376363 285.2325538 6.77738151 280.80960066 9 276 C9.56460938 274.824375 9.56460938 274.824375 10.140625 273.625 C17.4586721 258.06257072 21.74683522 242.59893743 25.37133789 225.8112793 C25.90742079 223.41399986 26.50188419 221.04817832 27.13671875 218.67578125 C28.01056214 214.95502725 28.37000605 211.50051851 28.5625 207.6875 C28.78936153 203.40490994 29.07595877 199.15799549 29.50390625 194.890625 C31.83760158 169.55863358 30.2974594 143.86814339 21 120 C20.67 119.01 20.34 118.02 20 117 C19.34 116.67 18.68 116.34 18 116 C17.27243086 114.31554193 16.54921138 112.62895419 15.85693359 110.9296875 C10.84714017 99.64837491 1.95476187 90.15184031 -9.2421875 85.015625 C-18.46648102 81.61857639 -25.82139633 81.57061428 -35.125 84.6640625 C-41.27581923 87.52218774 -45.4054874 91.77115069 -48 98 C-48.72869443 102.0051599 -48.94229527 105.93443932 -49 110 C-49.04511719 111.0209375 -49.09023437 112.041875 -49.13671875 113.09375 C-48.94283026 118.63342127 -47.92790736 123.97970692 -47 129.4375 C-42.51679564 157.45898598 -47.32976885 181.85524133 -60 207 C-60.32983887 207.67144043 -60.65967773 208.34288086 -60.99951172 209.03466797 C-68.58066694 224.42387285 -78.42081038 237.94442218 -89.0390625 251.36328125 C-91.41988518 254.47816284 -91.41988518 254.47816284 -93 258 C-90.67877378 265.72703495 -83.86775772 272.75426731 -79 279 C-77.95392578 280.35738281 -77.95392578 280.35738281 -76.88671875 281.7421875 C-73.79946465 285.68667915 -70.7054474 289.36987761 -67.0625 292.8125 C-64.38892436 295.37670209 -63.11685805 297.14368427 -63 301 C-68.15758346 299.57394006 -71.97600916 297.25721754 -76.3125 294.25 C-77.65094223 293.33709378 -78.98948334 292.42433252 -80.328125 291.51171875 C-81.28428711 290.85502197 -81.28428711 290.85502197 -82.25976562 290.18505859 C-84.33583406 288.77130492 -86.44797619 287.41786207 -88.5625 286.0625 C-98.78777802 279.22649952 -108.43690593 271.18844905 -117.578125 262.96875 C-119.8052219 260.97380181 -122.05879792 259.24880238 -124.546875 257.59375 C-129.29767913 254.16333285 -132.43782392 250.97997821 -133.55517578 245.05712891 C-134.31583216 236.34450219 -133.71298965 227.6966715 -133 219 C-132.91733887 217.86030762 -132.83467773 216.72061523 -132.74951172 215.54638672 C-129.95827372 179.19575547 -118.06459763 145.17947655 -103.37792969 112.10742188 C-101.38256679 107.60760278 -99.43073239 103.09036083 -97.5 98.5625 C-97.04729736 97.52766479 -97.04729736 97.52766479 -96.58544922 96.47192383 C-90.71368483 82.71545497 -88.41429989 68.61896885 -86.22363281 53.93457031 C-83.17391019 33.69415942 -77.45753998 14.56531289 -61 1 C-42.41740958 -12.06628109 -18.8644854 -13.29088744 0 0 Z M-26 31 C-28.45893906 34.6884086 -28.6821084 37.71739539 -28 42 C-25.85744848 45.34238038 -24.39717502 45.89167954 -20.5625 46.9375 C-16.49335007 47.0088886 -14.99575136 46.73897267 -12 44 C-10.16596312 39.94983522 -9.69516463 37.95036911 -11.0625 33.6875 C-13.24497207 30.66020003 -14.41657597 29.87400586 -18 29 C-21.78149076 29 -22.964349 29.07742103 -26 31 Z " fill="#1A271F" transform="translate(207,74)"/>
<path d="M0 0 C3.62708036 3.62708036 3.43876647 9.32372778 4.1875 14.25 C4.36748535 15.42755859 4.5474707 16.60511719 4.73291016 17.81835938 C5.88693502 25.90433842 6.90814084 33.93743306 5 42 C4.34 42.66 3.68 43.32 3 44 C2.98018066 43.25951416 2.96036133 42.51902832 2.93994141 41.75610352 C2.84390394 38.35791589 2.73454684 34.9602779 2.625 31.5625 C2.57859375 29.81549805 2.57859375 29.81549805 2.53125 28.03320312 C2.33094737 22.10758362 1.88727056 16.59895386 0.43212891 10.84790039 C-0.41494404 7.22558674 -0.11727992 3.6943176 0 0 Z " fill="#0C130E" transform="translate(156,189)"/>
<path d="M0 0 C2.35183546 2.35183546 2.84200154 4.05193497 3.875 7.19921875 C4.22046875 8.24400391 4.5659375 9.28878906 4.921875 10.36523438 C5.27765625 11.46158203 5.6334375 12.55792969 6 13.6875 C6.35578125 14.76451172 6.7115625 15.84152344 7.078125 16.95117188 C8.82725496 22.27361769 10.51603384 27.5974357 12 33 C11.34 33 10.68 33 10 33 C8.70624133 29.62579827 7.41536939 26.25049917 6.125 22.875 C5.76019531 21.92367187 5.39539063 20.97234375 5.01953125 19.9921875 C-0.29003681 6.09077295 -0.29003681 6.09077295 0 0 Z " fill="#51A359" transform="translate(14,217)"/>
<path d="M0 0 C0.66 0 1.32 0 2 0 C2.04939662 3.95096978 2.08571755 7.9018203 2.10986328 11.85302734 C2.12488107 13.8591136 2.15028981 15.86511324 2.17578125 17.87109375 C2.18222656 19.12792969 2.18867187 20.38476562 2.1953125 21.6796875 C2.20578613 22.84226074 2.21625977 24.00483398 2.22705078 25.20263672 C2 28 2 28 0 30 C-1 29 -1 29 -1.02172852 26.22436523 C-0.97459717 25.01466064 -0.92746582 23.80495605 -0.87890625 22.55859375 C-0.83056641 21.25341797 -0.78222656 19.94824219 -0.73242188 18.60351562 C-0.67589169 17.21483925 -0.61924959 15.82616743 -0.5625 14.4375 C-0.50929453 13.04493979 -0.45655404 11.65236174 -0.40429688 10.25976562 C-0.27411909 6.83964019 -0.1391382 3.41977076 0 0 Z " fill="#48A052" transform="translate(1,89)"/>
<path d="M0 0 C3.60063825 3.491528 6.94422333 7.13886076 10.21484375 10.94140625 C11.39409751 12.30128969 12.59453479 13.64312043 13.81640625 14.96484375 C14.64978516 15.87943359 14.64978516 15.87943359 15.5 16.8125 C16.0053125 17.35519531 16.510625 17.89789063 17.03125 18.45703125 C17.3509375 18.96621094 17.670625 19.47539062 18 20 C17.67 20.99 17.34 21.98 17 23 C0 4.70020121 0 4.70020121 0 0 Z " fill="#54A05B" transform="translate(56,299)"/>
<path d="M0 0 C0.71875 1.64453125 0.71875 1.64453125 1 4 C-0.40625 6.69921875 -0.40625 6.69921875 -2.5 9.6875 C-3.2321875 10.73808594 -3.964375 11.78867187 -4.71875 12.87109375 C-7.72129524 16.98931077 -10.79670923 21.03592767 -14 25 C-14.33 24.01 -14.66 23.02 -15 22 C-13.84765625 20.1953125 -13.84765625 20.1953125 -12.0625 18.125 C-7.40464756 12.44354692 -3.75082843 6.30334025 0 0 Z " fill="#52A259" transform="translate(315,270)"/>
<path d="M0 0 C4.49923132 -0.55092628 7.32198782 -0.24093046 10.9375 2.4375 C13.68996409 5.04151658 14.49364302 6.84066797 14.625 10.625 C14.34816203 14.19380255 13.65821827 16.45254082 11 19 C10.34 18.67 9.68 18.34 9 18 C9.53625 16.96875 10.0725 15.9375 10.625 14.875 C11.94971387 11.81509755 12.01720996 11.08448527 11.3125 7.625 C10.27083333 4.88541667 10.27083333 4.88541667 8 4 C8 3.34 8 2.68 8 2 C5.36 1.67 2.72 1.34 0 1 C0 0.67 0 0.34 0 0 Z " fill="#121A14" transform="translate(184,101)"/>
<path d="M0 0 C1.90296943 3.80593886 2.75777272 6.86534066 3.625 11 C3.88539062 12.216875 4.14578125 13.43375 4.4140625 14.6875 C5 18 5 18 5 22 C4.34 22 3.68 22 3 22 C2.8046875 19.94921875 2.609375 17.8984375 2.4140625 15.84765625 C2.20910156 14.93306641 2.20910156 14.93306641 2 14 C1.34 13.67 0.68 13.34 0 13 C0 8.71 0 4.42 0 0 Z " fill="#4FA258" transform="translate(8,190)"/>
<path d="M0 0 C0.33 0.99 0.66 1.98 1 3 C-0.58203125 5.8125 -0.58203125 5.8125 -2.8125 9 C-3.54082031 10.051875 -4.26914063 11.10375 -5.01953125 12.1875 C-5.99986328 13.5796875 -5.99986328 13.5796875 -7 15 C-7.99 16.485 -7.99 16.485 -9 18 C-9.66 18 -10.32 18 -11 18 C-10.39425041 14.05796807 -8.42953645 11.58356111 -6.0625 8.4375 C-3.97988335 5.6518585 -1.92961929 2.89442894 0 0 Z " fill="#151E17" transform="translate(136,296)"/>
<path d="M0 0 C4.8 3.32307692 4.8 3.32307692 5.8125 6.75 C5.874375 7.4925 5.93625 8.235 6 9 C3.125 8.3125 3.125 8.3125 0 7 C-1.375 4.375 -1.375 4.375 -2 2 C-1.34 2 -0.68 2 0 2 C0 1.34 0 0.68 0 0 Z " fill="#212D23" transform="translate(138,366)"/>
<path d="M0 0 C5.56890517 0.47986031 10.67067568 1.29915181 16 3 C16 3.66 16 4.32 16 5 C10.34979382 4.39891424 5.33835539 2.92471317 0 1 C0 0.67 0 0.34 0 0 Z " fill="#50A55A" transform="translate(259,33)"/>
<path d="M0 0 C0.33 0 0.66 0 1 0 C1.144375 1.155 1.28875 2.31 1.4375 3.5 C2.83584866 9.38778382 7.40210474 12.44278062 12 16 C11.34 16.66 10.68 17.32 10 18 C0.4573991 9.68430493 0.4573991 9.68430493 -0.6640625 5.5546875 C-0.625 3.375 -0.625 3.375 0 0 Z " fill="#101311" transform="translate(75,315)"/>
<path d="M0 0 C5.20935262 2.42108679 9.83390272 5.66780543 12.4375 10.875 C12.623125 11.57625 12.80875 12.2775 13 13 C12.34 13 11.68 13 11 13 C9.4140625 11.390625 9.4140625 11.390625 7.625 9.25 C5.65753746 6.92929784 3.71602164 4.71602164 1.5625 2.5625 C1.046875 2.046875 0.53125 1.53125 0 1 C0 0.67 0 0.34 0 0 Z " fill="#101912" transform="translate(204,160)"/>
<path d="M0 0 C0.33 0 0.66 0 1 0 C1.20674944 5.78898419 0.59162079 10.42932723 -1 16 C-1.66 16 -2.32 16 -3 16 C-2.30834212 10.58201328 -1.24200752 5.3177215 0 0 Z " fill="#4EA457" transform="translate(341,201)"/>
<path d="M0 0 C0.66 0 1.32 0 2 0 C0.27588087 5.57023102 -1.45433788 11.10371818 -6 15 C-5.39644592 11.14974121 -4.23227397 8.13898841 -2.4375 4.6875 C-1.98246094 3.80449219 -1.52742187 2.92148437 -1.05859375 2.01171875 C-0.53458984 1.01591797 -0.53458984 1.01591797 0 0 Z " fill="#0F1610" transform="translate(216,350)"/>
<path d="M0 0 C4.51045941 2.46025059 8.18504423 5.60282037 12 9 C11.01 9.33 10.02 9.66 9 10 C7.49410612 8.71520959 5.99542625 7.42195918 4.5 6.125 C3.6646875 5.40570313 2.829375 4.68640625 1.96875 3.9453125 C1.3190625 3.30335938 0.669375 2.66140625 0 2 C0 1.34 0 0.68 0 0 Z " fill="#131C15" transform="translate(91,336)"/>
<path d="M0 0 C1.04449911 3.13349732 0.93423645 3.98968256 0 7 C-0.66 7 -1.32 7 -2 7 C-2.28875 8.134375 -2.5775 9.26875 -2.875 10.4375 C-3.24625 11.613125 -3.6175 12.78875 -4 14 C-4.99 14.495 -4.99 14.495 -6 15 C-5.39644592 11.14974121 -4.23227397 8.13898841 -2.4375 4.6875 C-1.98246094 3.80449219 -1.52742188 2.92148438 -1.05859375 2.01171875 C-0.53458984 1.01591797 -0.53458984 1.01591797 0 0 Z " fill="#0E1312" transform="translate(111,171)"/>
<path d="M0 0 C0.33 0.99 0.66 1.98 1 3 C-0.25942386 4.19959375 -1.53295286 5.38439443 -2.8125 6.5625 C-3.87404297 7.55443359 -3.87404297 7.55443359 -4.95703125 8.56640625 C-5.63121094 9.03949219 -6.30539062 9.51257813 -7 10 C-7.99 9.67 -8.98 9.34 -10 9 C-6.7 6.03 -3.4 3.06 0 0 Z " fill="#509F58" transform="translate(270,326)"/>
<path d="M0 0 C1.18414294 3.55242882 0.69535532 4.69830562 -0.4375 8.1875 C-0.72496094 9.08855469 -1.01242188 9.98960937 -1.30859375 10.91796875 C-1.53675781 11.60503906 -1.76492187 12.29210937 -2 13 C-2.33 13 -2.66 13 -3 13 C-3.15808824 4.9375 -3.15808824 4.9375 -2 1 C-1.34 0.67 -0.68 0.34 0 0 Z " fill="#0E1610" transform="translate(159,167)"/>
<path d="M0 0 C0.66 0.66 1.32 1.32 2 2 C1.64626043 5.9795702 0.60725491 9.35688886 -1 13 C-1.33 13 -1.66 13 -2 13 C-1.85769192 11.58297487 -1.71099254 10.1663904 -1.5625 8.75 C-1.48128906 7.96109375 -1.40007812 7.1721875 -1.31640625 6.359375 C-1.02365007 4.17635361 -0.57935581 2.1226818 0 0 Z " fill="#62CA70" transform="translate(257,292)"/>
<path d="M0 0 C0.66 0.33 1.32 0.66 2 1 C-1.96 4.465 -1.96 4.465 -6 8 C-6.33 7.01 -6.66 6.02 -7 5 C-4.69 3.35 -2.38 1.7 0 0 Z " fill="#55A15D" transform="translate(258,337)"/>
<path d="M0 0 C0.33 0 0.66 0 1 0 C1 5.28 1 10.56 1 16 C0.01 15.67 -0.98 15.34 -2 15 C-1.67 14.01 -1.34 13.02 -1 12 C-0.77674186 9.94106379 -0.59294241 7.87766347 -0.4375 5.8125 C-0.35371094 4.72582031 -0.26992188 3.63914062 -0.18359375 2.51953125 C-0.12300781 1.68808594 -0.06242188 0.85664062 0 0 Z " fill="#50A85C" transform="translate(2,73)"/>
<path d="M0 0 C0.33 0.99 0.66 1.98 1 3 C-0.65 4.65 -2.3 6.3 -4 8 C-4.99 7.67 -5.98 7.34 -7 7 C-2.25 1.125 -2.25 1.125 0 0 Z " fill="#101912" transform="translate(167,158)"/>
<path d="M0 0 C-4.39453125 4.00390625 -4.39453125 4.00390625 -6 5 C-6.99 4.67 -7.98 4.34 -9 4 C-6.56225426 0.2214941 -6.56225426 0.2214941 -3.9375 -0.8125 C-2 -1 -2 -1 0 0 Z " fill="#559B5C" transform="translate(250,347)"/>
<path d="M0 0 C2.27618181 2.1677922 4.32954824 4.32727719 6 7 C5.67 7.99 5.34 8.98 5 10 C2.08772731 6.71195019 0.50298788 4.40114397 0 0 Z " fill="#50A258" transform="translate(39,275)"/>
<path d="M0 0 C2.60691842 2.60691842 2.70416963 4.37607794 3 8 C2.34 8.99 1.68 9.98 1 11 C-0.20272819 8.59454362 -0.10071472 7.05003047 -0.0625 4.375 C-0.05347656 3.55773437 -0.04445312 2.74046875 -0.03515625 1.8984375 C-0.02355469 1.27195313 -0.01195312 0.64546875 0 0 Z " fill="#121A14" transform="translate(156,189)"/>
<path d="M0 0 C-3.00617269 3.00617269 -5.82381598 2.59585316 -10 3 C-10 2.34 -10 1.68 -10 1 C-6.61981469 -0.04005702 -3.5219721 -0.08004482 0 0 Z " fill="#4FA558" transform="translate(84,36)"/>
<path d="M0 0 C0.33 0.99 0.66 1.98 1 3 C-0.40445835 5.2636564 -2.1967913 7.0208685 -4 9 C-4.33 8.01 -4.66 7.02 -5 6 C-3.59554165 3.7363436 -1.8032087 1.9791315 0 0 Z " fill="#52A259" transform="translate(298,295)"/>
<path d="M0 0 C3.08089673 2.77280706 4.68775452 5.06326356 6 9 C5.34 9 4.68 9 4 9 C0 3.70588235 0 3.70588235 0 0 Z " fill="#4F9F58" transform="translate(47,287)"/>
<path d="M0 0 C-3.00617269 3.00617269 -5.82381598 2.59585316 -10 3 C-7.29536552 -0.8183075 -4.37912428 -0.24787496 0 0 Z " fill="#4CA255" transform="translate(69,40)"/>
<path d="" fill="#4E8658" transform="translate(0,0)"/>
<path d="" fill="#599661" transform="translate(0,0)"/>
<path d="" fill="#5A9C64" transform="translate(0,0)"/>
<path d="" fill="#5EA063" transform="translate(0,0)"/>
<path d="" fill="#5EA764" transform="translate(0,0)"/>
<path d="" fill="#5FA464" transform="translate(0,0)"/>
<path d="" fill="#5DA865" transform="translate(0,0)"/>
<path d="" fill="#5F9D62" transform="translate(0,0)"/>
<path d="" fill="#5AA264" transform="translate(0,0)"/>
<path d="" fill="#5CA365" transform="translate(0,0)"/>
<path d="" fill="#5FA766" transform="translate(0,0)"/>
<path d="" fill="#5CA566" transform="translate(0,0)"/>
<path d="" fill="#5AA563" transform="translate(0,0)"/>
<path d="" fill="#5CA566" transform="translate(0,0)"/>
<path d="" fill="#5BA763" transform="translate(0,0)"/>
<path d="" fill="#5AA565" transform="translate(0,0)"/>
<path d="" fill="#5DAA67" transform="translate(0,0)"/>
<path d="" fill="#5FAB68" transform="translate(0,0)"/>
<path d="" fill="#5DAB68" transform="translate(0,0)"/>
<path d="" fill="#5DA767" transform="translate(0,0)"/>
<path d="" fill="#364737" transform="translate(0,0)"/>
<path d="" fill="#5EAB68" transform="translate(0,0)"/>
<path d="" fill="#5EAC67" transform="translate(0,0)"/>
<path d="" fill="#5EA669" transform="translate(0,0)"/>
<path d="" fill="#5CAA64" transform="translate(0,0)"/>
<path d="" fill="#5CAA65" transform="translate(0,0)"/>
</svg>
